<?xml version="1.0" encoding="UTF-8" standalone="no"?>
<svg height="680" width="675" id="hole" viewBox="0 0 680 675" version="1.1" xmlns="http://www.w3.org/2000/svg">
  <defs>
    <filter height="200" width="200" id="noactive" x="-2" y="-2">
      <feGaussianBlur in="SourceGraphic" stdDeviation="2"/>
    </filter>
  </defs>
  <g id="hole">
    <path d="M 332.4,5.8 C 277.8,7.7 223.5,22.1 175.9,49.1 126.6,77.9 83.8,118.2 53.4,166.7 c -11,18 -20.7,36.8 -28.9,56.2 -8,19.2 -14,39.3 -16.5,59.9 -2.9,23.6 -2.4,47.5 -1.5,71.2 1,22.5 3.4,45 9,66.8 4,15.6 9.2,30.9 15.3,45.8 8,19.4 18,38.1 30,55.3 11.3,16.4 23.6,32 36.9,46.7 17.3,18.9 36.6,35.8 57.3,50.8 21.4,15.8 44.6,29.9 70.1,38 24.8,8.2 50.6,12.8 76.5,15.9 27.5,3 55.3,2.2 82.8,-1 19.4,-2.3 38.5,-6.5 57,-12.6 32.7,-10.7 63.4,-27.1 91.2,-47.3 35,-25.2 65.9,-56.4 89.6,-92.6 17.1,-25.8 31.7,-53.7 40.1,-83.7 7.5,-27.2 9.8,-55.6 8.4,-83.7 -0.8,-22.7 -2.7,-45.3 -4.6,-67.9 -2.1,-21 -6.3,-42 -13.8,-61.8 C 639.8,188.6 621.7,156.8 602,126.4 591.1,109.6 578.5,93.5 562.7,81 554.4,74.5 545.7,68.7 536.8,63.2 519.4,52.3 500.8,43.4 481.7,35.9 464.8,29.2 447.7,23.3 430.2,18.4 406,11.8 381.1,7.8 356,6.5 348.1,6.1 340.2,5.9 332.4,5.9 Z" style="fill:none;stroke:#f85f73;stroke-width:10"/>
  </g>
</svg>