<?xml version="1.0" encoding="UTF-8" standalone="no"?>
<svg height="1606.9" id="score" viewBox="0 0 774.5 725.4" width="647" xmlns="http://www.w3.org/2000/svg" xmlns:xlink="http://www.w3.org/1999/xlink">
	<defs>
	</defs>
	<g id="score">
		<path d="M395.5 -596.02c-164.4 8.7 -319.7 117.1 -372.1 265.5 -29.4 92 -20.2 190.1 -13.8 284.6 11.9 166.6 42.3 333.2 30.3 500.7 -13.8 174.4 -30.3 350.6 -12.9 525 2.8 38.2 7.4 78.1 27.6 112.8 51.5 100.7 149.8 177 260.9 211.7 74.4 22.6 157.1 24.3 229.7 -2.6 98.3 -34.7 172.7 -115.4 205.8 -208.3 19.3 -52.1 24.8 -108.5 17.5 -163.1 -7.4 -199.6 -8.3 -399.2 -3.7 -598.7 3.7 -203.9 1.9 -407 -1.8 -610.9 -2.7 -130.1 -97.4 -252.5 -226 -296.7 -45.9 -15.7 -94.6 -20.9 -143.3 -20z" style="fill:none;stroke:#2e73c3;stroke-width:6"/>
	</g>
</svg>