<?xml version="1.0" encoding="UTF-8" standalone="no"?>
<svg height="100"  width="100" id="token"  version="1.1" xmlns="http://www.w3.org/2000/svg">
  <g id="token">
    <path d="M 5.6,61.5 C 14,72.4 15.7,79 28.6,81 38.9,82.6 49.5,84 59.8,81.4 72.8,78.7 85.1,70.1 89.4,57.1 94.5,25.5 68.6,-5.7 40.3,9 1.7,40.7 54.2,84.8 76.4,53.8 86.3,-9.4 -0.4,5.9 1.1,50.2 2,64.5 13.6,76 26.7,80.2 140.2,74.2 35,-29.3 26.1,43.6 27.9,92.1 87.4,63 86.3,27.8 84.2,6.5 55.2,-3.4 34.2,2.5 -1.3,22.4 45.1,71.9 68.3,46.7 91.4,9.4 -21.7,28 22.1,37.1 11.6,54.1 17.7,46.6 23,54.2 31.9,67 -28.7,47.8 64.4,44.2 114.7,27.9 24,2.1 12.1,36 9.8,45.7 16.3,55.4 24,60.7 36.9,69.2 52.9,70.4 67.3,75 90.1,79.1 103.5,50.6 95.8,35.6 86.3,17.7 60.6,21.4 48.1,30.7 35,44.4 46.7,66.5 62.4,64 75,62.3 86.5,50 84.1,36.8 83.5,18.4 60.2,6.3 44.5,15.2 23.6,23.6 29.5,54.6 47.2,54.5 70.5,53.5 74.3,21.2 59.8,12.9 17.8,8.8 18.1,71.3 48.2,75.5 59.7,76.7 71.5,71.4 78.4,62.1 87,51.6 92.2,36.6 87.4,23.3 85.3,17.4 80.5,12.6 74.5,10.6 60,5 44,9 29.9,13.8 6.5,15.8 -7,43.1 5.6,61.4 Z" style="fill:none;stroke:#000000;stroke-width:2px"/>
  </g>
</svg>